<?xml version="1.0" encoding="UTF-8" standalone="no"?>
<!DOCTYPE svg PUBLIC "-//W3C//DTD SVG 1.1//EN" "http://www.w3.org/Graphics/SVG/1.1/DTD/svg11.dtd">
<svg xmlns="http://www.w3.org/2000/svg" version="1.1" viewBox="0 0 1618 220">
<path fill="#ffffff" d="
  M 0.00 0.00
  L 1618.00 0.00
  L 1618.00 220.00
  L 0.00 220.00
  L 0.00 0.00
  Z"
/>
<path fill="#000000" d="
  M 101.65 175.00
  L 157.35 175.00
  A 0.65 0.65 0.0 0 1 158.00 175.65
  L 158.00 202.35
  A 0.65 0.65 0.0 0 1 157.35 203.00
  L 42.65 203.00
  A 0.65 0.65 0.0 0 1 42.00 202.35
  L 42.00 19.65
  A 0.65 0.65 0.0 0 1 42.65 19.00
  L 157.35 19.00
  A 0.65 0.65 0.0 0 1 158.00 19.65
  L 158.00 46.35
  A 0.65 0.65 0.0 0 1 157.35 47.00
  L 101.65 47.00
  A 0.65 0.65 0.0 0 0 101.00 47.65
  L 101.00 96.35
  A 0.65 0.65 0.0 0 0 101.65 97.00
  L 157.35 97.00
  A 0.65 0.65 0.0 0 1 158.00 97.65
  L 158.00 124.35
  A 0.65 0.65 0.0 0 1 157.35 125.00
  L 101.65 125.00
  A 0.65 0.65 0.0 0 0 101.00 125.65
  L 101.00 174.35
  A 0.65 0.65 0.0 0 0 101.65 175.00
  Z"
/>
<path fill="#000000" d="
  M 329.67 149.00
  L 385.33 149.00
  A 0.67 0.67 0.0 0 1 386.00 149.67
  L 386.00 202.33
  A 0.67 0.67 0.0 0 1 385.33 203.00
  L 327.67 203.00
  A 0.67 0.67 0.0 0 1 327.00 202.33
  L 327.00 151.66
  A 0.67 0.67 0.0 0 0 326.33 150.99
  L 272.67 150.98
  A 0.67 0.67 0.0 0 0 272.00 151.65
  L 272.00 202.27
  A 0.67 0.67 0.0 0 1 271.33 202.94
  L 213.67 202.94
  A 0.67 0.67 0.0 0 1 213.00 202.27
  L 213.00 149.67
  A 0.67 0.67 0.0 0 1 213.67 149.00
  L 269.40 149.00
  A 0.67 0.67 0.0 0 0 270.07 148.33
  L 269.97 73.67
  A 0.67 0.67 0.0 0 0 269.30 73.00
  L 213.74 73.00
  A 0.67 0.67 0.0 0 1 213.07 72.33
  L 213.05 19.67
  A 0.67 0.67 0.0 0 1 213.72 19.00
  L 271.33 19.00
  A 0.67 0.67 0.0 0 1 272.00 19.67
  L 272.00 70.33
  A 0.67 0.67 0.0 0 0 272.67 71.00
  L 326.33 71.00
  A 0.67 0.67 0.0 0 0 327.00 70.33
  L 327.00 19.67
  A 0.67 0.67 0.0 0 1 327.67 19.00
  L 385.33 19.00
  A 0.67 0.67 0.0 0 1 386.00 19.67
  L 386.00 72.33
  A 0.67 0.67 0.0 0 1 385.33 73.00
  L 329.67 73.00
  A 0.67 0.67 0.0 0 0 329.00 73.67
  L 329.00 148.33
  A 0.67 0.67 0.0 0 0 329.67 149.00
  Z"
/>
<path fill="#000000" d="
  M 500.65 175.00
  L 556.35 175.00
  A 0.65 0.65 0.0 0 1 557.00 175.65
  L 557.00 202.32
  A 0.65 0.65 0.0 0 1 556.35 202.97
  L 441.65 203.00
  A 0.65 0.65 0.0 0 1 441.00 202.35
  L 441.00 19.65
  A 0.65 0.65 0.0 0 1 441.65 19.00
  L 556.35 19.00
  A 0.65 0.65 0.0 0 1 557.00 19.65
  L 557.00 46.35
  A 0.65 0.65 0.0 0 1 556.35 47.00
  L 500.65 47.00
  A 0.65 0.65 0.0 0 0 500.00 47.65
  L 500.00 174.35
  A 0.65 0.65 0.0 0 0 500.65 175.00
  Z"
/>
<path fill="#000000" d="
  M 672.00 175.00
  L 727.00 175.00
  A 1.00 1.00 0.0 0 1 728.00 176.00
  L 728.00 201.93
  A 1.00 1.00 0.0 0 1 727.03 202.93
  Q 720.40 203.13 713.73 202.99
  C 680.23 202.29 646.56 203.09 613.02 202.97
  A 1.00 0.99 90.0 0 1 612.03 201.97
  L 612.00 20.00
  A 1.00 1.00 0.0 0 1 613.00 19.00
  L 727.00 19.00
  A 1.00 1.00 0.0 0 1 728.00 20.00
  L 728.00 46.00
  A 1.00 1.00 0.0 0 1 727.00 47.00
  L 672.00 47.00
  A 1.00 1.00 0.0 0 0 671.00 48.00
  L 671.00 96.00
  A 1.00 1.00 0.0 0 0 672.00 97.00
  L 727.00 97.00
  A 1.00 1.00 0.0 0 1 728.00 98.00
  L 728.00 124.00
  A 1.00 1.00 0.0 0 1 727.00 125.00
  L 672.00 125.00
  A 1.00 1.00 0.0 0 0 671.00 126.00
  L 671.00 174.00
  A 1.00 1.00 0.0 0 0 672.00 175.00
  Z"
/>
<path fill="#000000" d="
  M 783.00 20.00
  A 1.00 1.00 0.0 0 1 784.00 19.00
  L 841.00 19.00
  A 1.00 1.00 0.0 0 1 842.00 20.00
  L 842.00 174.00
  A 1.00 1.00 0.0 0 0 843.00 175.00
  L 898.00 175.00
  A 1.00 1.00 0.0 0 1 899.00 176.00
  L 899.00 201.90
  A 1.00 0.99 -0.6 0 1 898.02 202.89
  Q 889.02 203.12 880.09 203.00
  Q 866.56 202.83 861.78 202.86
  Q 822.89 203.11 783.99 202.97
  A 1.00 1.00 0.0 0 1 783.00 201.97
  L 783.00 20.00
  Z"
/>
<path fill="#000000" d="
  M 1013.65 175.00
  L 1069.35 175.00
  A 0.65 0.65 0.0 0 1 1070.00 175.65
  L 1070.00 202.35
  A 0.65 0.65 0.0 0 1 1069.35 203.00
  L 954.65 203.00
  A 0.65 0.65 0.0 0 1 954.00 202.35
  L 954.00 19.65
  A 0.65 0.65 0.0 0 1 954.65 19.00
  L 1069.35 19.00
  A 0.65 0.65 0.0 0 1 1070.00 19.65
  L 1070.00 46.35
  A 0.65 0.65 0.0 0 1 1069.35 47.00
  L 1013.65 47.00
  A 0.65 0.65 0.0 0 0 1013.00 47.65
  L 1013.00 96.35
  A 0.65 0.65 0.0 0 0 1013.65 97.00
  L 1069.35 97.00
  A 0.65 0.65 0.0 0 1 1070.00 97.65
  L 1070.00 124.35
  A 0.65 0.65 0.0 0 1 1069.35 125.00
  L 1013.65 125.00
  A 0.65 0.65 0.0 0 0 1013.00 125.65
  L 1013.00 174.35
  A 0.65 0.65 0.0 0 0 1013.65 175.00
  Z"
/>
<path fill="#000000" d="
  M 1242.00 97.00
  L 1295.00 97.00
  A 1.00 1.00 0.0 0 0 1296.00 96.00
  L 1296.00 20.00
  A 1.00 1.00 0.0 0 1 1297.00 19.00
  L 1354.00 19.00
  A 1.00 1.00 0.0 0 1 1355.00 20.00
  L 1355.00 202.00
  A 1.00 1.00 0.0 0 1 1354.00 203.00
  L 1297.00 203.00
  A 1.00 1.00 0.0 0 1 1296.00 202.00
  L 1296.00 151.99
  A 1.00 1.00 0.0 0 0 1295.00 150.99
  L 1240.00 151.00
  A 1.00 1.00 0.0 0 1 1239.00 150.00
  L 1239.00 99.96
  A 1.00 1.00 0.0 0 0 1238.00 98.96
  L 1185.00 98.94
  A 1.00 1.00 0.0 0 0 1184.00 99.94
  L 1184.00 201.94
  A 1.00 1.00 0.0 0 1 1183.00 202.94
  L 1126.08 202.95
  A 1.01 1.00 89.4 0 1 1125.08 201.96
  Q 1124.82 184.51 1125.07 166.51
  C 1125.57 129.39 1124.86 92.20 1125.10 55.06
  Q 1125.21 38.23 1124.89 20.02
  A 1.00 1.00 0.0 0 1 1125.89 19.00
  L 1183.00 19.00
  A 1.00 1.00 0.0 0 1 1184.00 20.00
  L 1184.00 44.00
  A 1.00 1.00 0.0 0 0 1185.00 45.00
  L 1240.00 45.00
  A 1.00 1.00 0.0 0 1 1241.00 46.00
  L 1241.00 96.00
  A 1.00 1.00 0.0 0 0 1242.00 97.00
  Z"
/>
<path fill="#000000" d="
  M 1466.17 47.00
  L 1410.90 47.00
  A 0.83 0.83 0.0 0 1 1410.07 46.17
  L 1409.97 19.83
  A 0.83 0.83 0.0 0 1 1410.80 19.00
  L 1582.17 19.00
  A 0.83 0.83 0.0 0 1 1583.00 19.83
  L 1583.00 46.17
  A 0.83 0.83 0.0 0 1 1582.17 47.00
  L 1526.83 47.00
  A 0.83 0.83 0.0 0 0 1526.00 47.83
  L 1526.00 202.17
  A 0.83 0.83 0.0 0 1 1525.17 203.00
  L 1467.83 203.00
  A 0.83 0.83 0.0 0 1 1467.00 202.17
  L 1467.00 47.83
  A 0.83 0.83 0.0 0 0 1466.17 47.00
  Z"
/>
<rect fill="#92d050" x="44.00" y="21.00" width="55.00" height="24.04" rx="0.54"/>
<rect fill="#92d050" x="101.00" y="21.00" width="55.00" height="24.00" rx="0.27"/>
<rect fill="#92d050" x="215.00" y="21.00" width="55.00" height="24.00" rx="0.50"/>
<rect fill="#92d050" x="329.00" y="21.00" width="55.00" height="24.00" rx="0.50"/>
<rect fill="#92d050" x="443.00" y="21.00" width="55.04" height="24.00" rx="0.35"/>
<rect fill="#92d050" x="500.00" y="21.00" width="55.00" height="24.00" rx="0.53"/>
<rect fill="#92d050" x="614.00" y="21.00" width="55.00" height="24.00" rx="0.50"/>
<rect fill="#92d050" x="671.00" y="21.00" width="55.00" height="24.00" rx="0.50"/>
<rect fill="#92d050" x="785.00" y="21.00" width="55.00" height="24.00" rx="0.50"/>
<rect fill="#92d050" x="956.00" y="21.00" width="55.00" height="24.04" rx="0.54"/>
<rect fill="#92d050" x="1013.00" y="21.00" width="55.00" height="24.00" rx="0.27"/>
<rect fill="#92d050" x="1127.00" y="21.00" width="55.00" height="24.00" rx="0.43"/>
<rect fill="#92d050" x="1298.00" y="21.00" width="55.00" height="24.00" rx="0.43"/>
<rect fill="#92d050" x="1412.00" y="21.00" width="55.00" height="24.00" rx="0.50"/>
<rect fill="#92d050" x="1469.00" y="21.00" width="55.00" height="24.00" rx="0.27"/>
<rect fill="#92d050" x="1526.00" y="21.00" width="55.00" height="24.00" rx="0.43"/>
<rect fill="#92d050" x="-27.51" y="-12.05" transform="translate(242.48,58.95) rotate(-0.1)" width="55.02" height="24.10" rx="0.57"/>
<rect fill="#92d050" x="1126.97" y="46.96" width="55.02" height="24.04" rx="0.52"/>
<rect fill="#92d050" x="44.00" y="47.00" width="55.00" height="24.00" rx="0.43"/>
<rect fill="#92d050" x="329.00" y="47.00" width="55.00" height="24.00" rx="0.32"/>
<rect fill="#92d050" x="443.00" y="47.00" width="55.00" height="24.00" rx="0.50"/>
<rect fill="#92d050" x="614.00" y="47.00" width="55.00" height="24.00" rx="0.43"/>
<rect fill="#92d050" x="785.00" y="47.00" width="55.00" height="24.00" rx="0.32"/>
<rect fill="#92d050" x="956.00" y="47.00" width="55.00" height="24.00" rx="0.43"/>
<rect fill="#92d050" x="1184.00" y="47.00" width="55.00" height="24.00" rx="0.50"/>
<rect fill="#92d050" x="1298.00" y="47.00" width="55.00" height="24.00" rx="0.50"/>
<rect fill="#92d050" x="1469.00" y="47.00" width="55.00" height="24.00" rx="0.32"/>
<rect fill="#92d050" x="443.01" y="72.99" width="54.98" height="24.04" rx="0.51"/>
<rect fill="#92d050" x="614.00" y="72.98" width="55.00" height="24.02" rx="0.46"/>
<rect fill="#92d050" x="-27.49" y="-12.05" transform="translate(1325.50,85.03) rotate(-0.1)" width="54.98" height="24.10" rx="0.59"/>
<rect fill="#92d050" x="1469.00" y="72.98" width="55.00" height="24.02" rx="0.46"/>
<rect fill="#92d050" x="44.00" y="73.00" width="55.00" height="24.04" rx="0.47"/>
<rect fill="#92d050" x="272.00" y="73.00" width="55.00" height="24.00" rx="0.43"/>
<rect fill="#92d050" x="785.00" y="73.00" width="55.00" height="24.00" rx="0.43"/>
<rect fill="#92d050" x="956.00" y="73.00" width="55.00" height="24.04" rx="0.47"/>
<rect fill="#92d050" x="1127.00" y="73.00" width="55.02" height="24.00" rx="0.46"/>
<rect fill="#92d050" x="-27.50" y="-12.04" transform="translate(1211.50,85.04) rotate(-0.1)" width="55.00" height="24.08" rx="0.52"/>
<rect fill="#92d050" x="44.00" y="98.96" width="55.00" height="24.04" rx="0.46"/>
<rect fill="#92d050" x="272.00" y="98.96" width="55.00" height="24.04" rx="0.47"/>
<rect fill="#92d050" x="-27.50" y="-12.04" transform="translate(470.50,110.96) rotate(-0.1)" width="55.00" height="24.08" rx="0.58"/>
<rect fill="#92d050" x="614.00" y="98.92" width="55.00" height="24.08" rx="0.51"/>
<rect fill="#92d050" x="785.00" y="98.94" width="55.00" height="24.06" rx="0.55"/>
<rect fill="#92d050" x="956.00" y="98.96" width="55.00" height="24.04" rx="0.46"/>
<rect fill="#92d050" x="1127.00" y="98.92" width="55.00" height="24.08" rx="0.53"/>
<rect fill="#92d050" x="1298.00" y="98.92" width="55.00" height="24.08" rx="0.52"/>
<rect fill="#92d050" x="1469.00" y="98.92" width="55.00" height="24.08" rx="0.57"/>
<rect fill="#92d050" x="101.00" y="99.00" width="55.00" height="24.00" rx="0.27"/>
<rect fill="#92d050" x="671.00" y="99.00" width="55.00" height="24.00" rx="0.27"/>
<rect fill="#92d050" x="1013.00" y="99.00" width="55.00" height="24.00" rx="0.27"/>
<rect fill="#92d050" x="1241.00" y="99.00" width="55.00" height="24.00" rx="0.32"/>
<rect fill="#92d050" x="44.00" y="125.00" width="55.00" height="24.04" rx="0.59"/>
<rect fill="#92d050" x="272.00" y="125.00" width="55.00" height="24.02" rx="0.38"/>
<rect fill="#92d050" x="443.00" y="125.00" width="55.00" height="24.00" rx="0.43"/>
<rect fill="#92d050" x="614.00" y="125.00" width="55.00" height="24.00" rx="0.43"/>
<rect fill="#92d050" x="785.00" y="125.00" width="55.00" height="24.00" rx="0.53"/>
<rect fill="#92d050" x="956.00" y="125.00" width="55.00" height="24.04" rx="0.59"/>
<rect fill="#92d050" x="1127.00" y="125.00" width="55.00" height="24.00" rx="0.50"/>
<rect fill="#92d050" x="1241.00" y="125.00" width="55.02" height="24.00" rx="0.27"/>
<rect fill="#92d050" x="1298.00" y="125.00" width="55.00" height="24.00" rx="0.43"/>
<rect fill="#92d050" x="1469.00" y="125.00" width="55.00" height="24.00" rx="0.53"/>
<rect fill="#92d050" x="443.00" y="150.96" width="55.00" height="24.04" rx="0.54"/>
<rect fill="#92d050" x="614.00" y="150.98" width="55.00" height="24.02" rx="0.43"/>
<rect fill="#92d050" x="785.00" y="150.98" width="55.00" height="24.02" rx="0.33"/>
<rect fill="#92d050" x="-27.50" y="-12.06" transform="translate(1154.50,162.94) rotate(-0.1)" width="55.00" height="24.12" rx="0.54"/>
<rect fill="#92d050" x="44.00" y="151.00" width="55.00" height="24.00" rx="0.43"/>
<rect fill="#92d050" x="215.00" y="151.00" width="55.00" height="24.00" rx="0.43"/>
<rect fill="#92d050" x="329.00" y="151.00" width="55.00" height="24.00" rx="0.32"/>
<rect fill="#92d050" x="956.00" y="151.00" width="55.00" height="24.00" rx="0.43"/>
<rect fill="#92d050" x="1298.00" y="151.00" width="55.00" height="24.00" rx="0.43"/>
<rect fill="#92d050" x="1469.00" y="151.00" width="55.00" height="24.00" rx="0.50"/>
<rect fill="#92d050" x="44.01" y="176.99" width="55.04" height="24.12" rx="0.62"/>
<rect fill="#92d050" x="215.01" y="176.97" width="54.98" height="24.14" rx="0.69"/>
<rect fill="#92d050" x="329.00" y="176.97" width="55.00" height="24.08" rx="0.46"/>
<rect fill="#92d050" x="443.01" y="176.94" width="54.98" height="24.18" rx="0.67"/>
<rect fill="#92d050" x="-27.50" y="-12.07" transform="translate(527.50,189.05) rotate(-0.1)" width="55.00" height="24.14" rx="0.56"/>
<rect fill="#92d050" x="-27.50" y="-12.08" transform="translate(641.50,189.02) rotate(-0.1)" width="55.00" height="24.16" rx="0.60"/>
<rect fill="#92d050" x="785.01" y="176.98" width="54.98" height="24.10" rx="0.52"/>
<rect fill="#92d050" x="956.01" y="176.99" width="55.04" height="24.12" rx="0.62"/>
<rect fill="#92d050" x="1127.01" y="176.96" width="54.98" height="24.14" rx="0.69"/>
<rect fill="#92d050" x="1298.00" y="176.97" width="55.00" height="24.12" rx="0.52"/>
<rect fill="#92d050" x="1469.01" y="176.96" width="54.98" height="24.12" rx="0.61"/>
<rect fill="#92d050" x="101.00" y="177.00" width="55.00" height="24.10" rx="0.53"/>
<rect fill="#92d050" x="-27.50" y="-12.06" transform="translate(698.50,189.06) rotate(-0.1)" width="55.00" height="24.12" rx="0.62"/>
<rect fill="#92d050" x="842.00" y="177.00" width="55.00" height="24.10" rx="0.54"/>
<rect fill="#92d050" x="1013.00" y="177.00" width="55.00" height="24.10" rx="0.53"/>
</svg>
