<?xml version="1.0" encoding="UTF-8" standalone="no"?>
<!-- Created with Inkscape (http://www.inkscape.org/) -->

<svg
   width="210mm"
   height="297mm"
   viewBox="0 0 210 297"
   version="1.1"
   id="svg5"
   inkscape:version="1.1.1 (3bf5ae0d25, 2021-09-20)"
   sodipodi:docname="animationfirst.svg"
   xmlns:inkscape="http://www.inkscape.org/namespaces/inkscape"
   xmlns:sodipodi="http://sodipodi.sourceforge.net/DTD/sodipodi-0.dtd"
   xmlns="http://www.w3.org/2000/svg"
   xmlns:svg="http://www.w3.org/2000/svg">
  <sodipodi:namedview
     id="namedview7"
     pagecolor="#ffffff"
     bordercolor="#666666"
     borderopacity="1.0"
     inkscape:pageshadow="2"
     inkscape:pageopacity="0.0"
     inkscape:pagecheckerboard="0"
     inkscape:document-units="mm"
     showgrid="true"
     inkscape:zoom="1.5930688"
     inkscape:cx="379.77016"
     inkscape:cy="333.63279"
     inkscape:window-width="1682"
     inkscape:window-height="999"
     inkscape:window-x="2400"
     inkscape:window-y="482"
     inkscape:window-maximized="0"
     inkscape:current-layer="layer1">
    <inkscape:grid
       type="xygrid"
       id="grid824" />
  </sodipodi:namedview>
  <defs
     id="defs2" />
  <g
     inkscape:label="Layer 1"
     inkscape:groupmode="layer"
     id="layer1">
    <rect
       style="fill:#ffffff;stroke:#000000;stroke-width:0.396875;stroke-linecap:round;stroke-linejoin:round;stroke-opacity:1"
       id="rect848"
       width="68.791664"
       height="58.208336"
       x="58.208332"
       y="34.395832" />
    <path
       style="fill:none;stroke:#000000;stroke-width:0.264583px;stroke-linecap:butt;stroke-linejoin:miter;stroke-opacity:1"
       d="M 58.208333,37.041666 H 127 V 39.6875 H 58.208333 v 2.645833 H 127 v 2.645833 H 58.208333 v 2.645833 H 127 v 2.645834 H 58.208333 v 2.645833 H 127 v 2.645833 H 58.208333 v 2.645834 H 127 v 2.645833 H 58.208333 v 2.645833 H 127 v 2.645833 H 58.208333 v 2.645834 H 127 v 2.645833 H 58.208333 v 2.645833 H 127 v 2.645834 H 58.208333 v 2.645833 H 127 v 2.645833 H 58.208333 v 2.645834 H 127 v 2.645833 H 58.208333 v 2.645833 H 127"
       id="path1024" />
    <path
       style="fill:none;stroke:#000000;stroke-width:0.264583px;stroke-linecap:butt;stroke-linejoin:miter;stroke-opacity:1"
       d="m 63.499999,34.395833 v 58.208333 h 5.291667 V 34.395833 h 5.291666 v 58.208333 h 5.291667 V 34.395833 h 5.291667 v 58.208333 h 5.291666 V 34.395833 h 5.291667 v 58.208333 h 5.291671 V 34.395833 h 5.29166 V 92.604166 H 111.125 V 34.395833 h 5.29167 v 58.208333 h 5.29166 V 34.395833"
       id="path1026" />
    <rect
       style="fill:#ffffff;stroke:#000000;stroke-width:0.396875;stroke-linecap:round;stroke-linejoin:round;stroke-opacity:1"
       id="rect1130"
       width="37.041668"
       height="29.104168"
       x="55.5625"
       y="105.83333" />
    <rect
       style="fill:#ffffff;stroke:#000000;stroke-width:0.396875;stroke-linecap:round;stroke-linejoin:round;stroke-opacity:1"
       id="rect1130-0"
       width="37.041668"
       height="29.104168"
       x="55.5625"
       y="140.22917" />
    <rect
       style="fill:#ffffff;stroke:#000000;stroke-width:0.396875;stroke-linecap:round;stroke-linejoin:round;stroke-opacity:1"
       id="rect1130-08"
       width="37.041668"
       height="29.104168"
       x="97.895836"
       y="105.83334" />
    <rect
       style="fill:#ffffff;stroke:#000000;stroke-width:0.396875;stroke-linecap:round;stroke-linejoin:round;stroke-opacity:1"
       id="rect1130-0-1"
       width="37.041668"
       height="29.104168"
       x="97.895836"
       y="140.22917" />
    <path
       style="fill:none;stroke:#000000;stroke-width:0.264583px;stroke-linecap:butt;stroke-linejoin:miter;stroke-opacity:1"
       d="m 127,34.395833 h 5.29166 v 2.645833 H 127 V 39.6875 h 5.29166 v 2.645833 H 127 v 2.645833 h 5.29166 v 2.645833 H 127 v 2.645834 h 5.29166 v 2.645833 H 127 v 2.645833 h 5.29166 v 2.645834 H 127 v 2.645833 h 5.29166 v 2.645833 H 127 v 2.645833 h 5.29166 v 2.645834 H 127 v 2.645833 h 5.29166 v 2.645833 H 127 v 2.645834 h 5.29166 v 2.645833 H 127 v 2.645833 h 5.29166 v 2.645834 H 127 v 2.645833 h 5.29166 v 2.645833 H 127 v 2.645834 h 5.29166 V 34.395833"
       id="path1834" />
    <path
       style="fill:none;stroke:#000000;stroke-width:0.264583px;stroke-linecap:butt;stroke-linejoin:miter;stroke-opacity:1"
       d="m 60.854166,105.83333 v 29.10417 h 5.291666 v -29.10417 h 5.291667 v 29.10417 h 5.291667 v -29.10417 h 5.291666 v 29.10417 h 5.291667 v -29.10417 h 5.291667 v 2.64584 H 55.562499 v 2.64583 h 37.041667 v 2.64583 H 55.562499 v 2.64584 h 37.041667 v 2.64583 H 55.562499 v 2.64583 h 37.041667 v 2.64584 H 55.562499 V 127 h 37.041667 v 2.64583 H 55.562499 v 2.64583 h 37.041667"
       id="path1976" />
    <path
       style="fill:none;stroke:#000000;stroke-width:0.264583px;stroke-linecap:butt;stroke-linejoin:miter;stroke-opacity:1"
       d="m 103.1875,105.83333 v 29.10417 h 5.29166 v -29.10417 h 5.29167 v 29.10417 h 5.29167 v -29.10417 h 5.29166 v 29.10417 h 5.29167 v -29.10417 h 5.29167 v 2.64584 H 97.89583 v 2.64583 h 37.04167 v 2.64583 H 97.89583 v 2.64584 h 37.04167 v 2.64583 H 97.89583 v 2.64583 h 37.04167 v 2.64584 H 97.89583 V 127 h 37.04167 v 2.64583 H 97.89583 v 2.64583 h 37.04167"
       id="path1976-3" />
    <path
       style="fill:none;stroke:#000000;stroke-width:0.264583px;stroke-linecap:butt;stroke-linejoin:miter;stroke-opacity:1"
       d="m 103.1875,140.22916 v 29.10417 h 5.29167 v -29.10417 h 5.29167 v 29.10417 h 5.29166 v -29.10417 h 5.29167 v 29.10417 h 5.29167 v -29.10417 h 5.29166 V 142.875 H 97.89584 v 2.64583 h 37.04166 v 2.64583 H 97.89584 v 2.64584 h 37.04166 v 2.64583 H 97.89584 v 2.64583 H 134.9375 V 158.75 H 97.89584 v 2.64583 h 37.04166 v 2.64583 H 97.89584 v 2.64583 h 37.04166"
       id="path1976-0" />
    <path
       style="fill:none;stroke:#000000;stroke-width:0.264583px;stroke-linecap:butt;stroke-linejoin:miter;stroke-opacity:1"
       d="m 60.854167,140.22916 v 29.10417 h 5.291666 V 140.22916 H 71.4375 v 29.10417 h 5.291667 v -29.10417 h 5.291666 v 29.10417 H 87.3125 v -29.10417 h 5.291667 V 142.875 H 55.5625 v 2.64583 h 37.041667 v 2.64583 H 55.5625 v 2.64584 h 37.041667 v 2.64583 H 55.5625 v 2.64583 H 92.604167 V 158.75 H 55.5625 v 2.64583 h 37.041667 v 2.64583 H 55.5625 v 2.64583 h 37.041667"
       id="path1976-07" />
  </g>
</svg>
