<?xml version="1.0" encoding="UTF-8" standalone="no"?>
<svg
   version="1.1"
   viewBox="0 0 1618 220"
   id="svg3957"
   sodipodi:docname="Excellent_Logo_Blue3.svg"
   inkscape:version="1.1.1 (3bf5ae0d25, 2021-09-20)"
   xmlns:inkscape="http://www.inkscape.org/namespaces/inkscape"
   xmlns:sodipodi="http://sodipodi.sourceforge.net/DTD/sodipodi-0.dtd"
   xmlns="http://www.w3.org/2000/svg"
   xmlns:svg="http://www.w3.org/2000/svg">
  <defs
     id="defs3961" />
  <sodipodi:namedview
     id="namedview3959"
     pagecolor="#ffffff"
     bordercolor="#666666"
     borderopacity="1.0"
     inkscape:pageshadow="2"
     inkscape:pageopacity="0.0"
     inkscape:pagecheckerboard="0"
     showgrid="false"
     inkscape:zoom="0.68855526"
     inkscape:cx="865.5805"
     inkscape:cy="299.17715"
     inkscape:window-width="2400"
     inkscape:window-height="1458"
     inkscape:window-x="1909"
     inkscape:window-y="-11"
     inkscape:window-maximized="1"
     inkscape:current-layer="svg3957" />
  <rect
     style="fill:#091419;fill-opacity:1;stroke-width:1.5;stroke-linecap:round;stroke-linejoin:round"
     id="rect4158"
     width="1968.6569"
     height="755.42743"
     x="-115.66872"
     y="255.20529" />
  <rect
     fill="#92d050"
     x="329.00"
     y="21.00"
     width="55.00"
     height="24.00"
     rx="0.50"
     id="rect3793"
     style="fill:#499dbe;fill-opacity:1" />
  <rect
     fill="#92d050"
     x="443.00"
     y="21.00"
     width="55.04"
     height="24.00"
     rx="0.35"
     id="rect3795"
     style="fill:#499dbe;fill-opacity:1" />
  <rect
     fill="#92d050"
     x="500.00"
     y="21.00"
     width="55.00"
     height="24.00"
     rx="0.53"
     id="rect3797"
     style="fill:#499dbe;fill-opacity:1" />
  <rect
     fill="#92d050"
     x="614.00"
     y="21.00"
     width="55.00"
     height="24.00"
     rx="0.50"
     id="rect3799"
     style="fill:#499dbe;fill-opacity:1" />
  <rect
     fill="#92d050"
     x="671.00"
     y="21.00"
     width="55.00"
     height="24.00"
     rx="0.50"
     id="rect3801"
     style="fill:#499dbe;fill-opacity:1" />
  <rect
     fill="#92d050"
     x="785.00"
     y="21.00"
     width="55.00"
     height="24.00"
     rx="0.50"
     id="rect3803"
     style="fill:#499dbe;fill-opacity:1" />
  <rect
     fill="#92d050"
     x="956.00"
     y="21.00"
     width="55.00"
     height="24.04"
     rx="0.54"
     id="rect3805"
     style="fill:#499dbe;fill-opacity:1" />
  <rect
     fill="#92d050"
     x="1013.00"
     y="21.00"
     width="55.00"
     height="24.00"
     rx="0.27"
     id="rect3807"
     style="fill:#499dbe;fill-opacity:1" />
  <rect
     fill="#92d050"
     x="1127.00"
     y="21.00"
     width="55.00"
     height="24.00"
     rx="0.43"
     id="rect3809"
     style="fill:#499dbe;fill-opacity:1" />
  <rect
     fill="#92d050"
     x="1298.00"
     y="21.00"
     width="55.00"
     height="24.00"
     rx="0.43"
     id="rect3811"
     style="fill:#499dbe;fill-opacity:1" />
  <rect
     fill="#92d050"
     x="1412.00"
     y="21.00"
     width="55.00"
     height="24.00"
     rx="0.50"
     id="rect3813"
     style="fill:#499dbe;fill-opacity:1" />
  <rect
     fill="#92d050"
     x="1469.00"
     y="21.00"
     width="55.00"
     height="24.00"
     rx="0.27"
     id="rect3815"
     style="fill:#499dbe;fill-opacity:1" />
  <rect
     fill="#92d050"
     x="1526.00"
     y="21.00"
     width="55.00"
     height="24.00"
     rx="0.43"
     id="rect3817"
     style="fill:#499dbe;fill-opacity:1" />
  <rect
     fill="#92d050"
     x="-27.51"
     y="-12.05"
     transform="translate(242.48,58.95) rotate(-0.1)"
     width="55.02"
     height="24.10"
     rx="0.57"
     id="rect3819"
     style="fill:#499dbe;fill-opacity:1" />
  <rect
     fill="#92d050"
     x="1126.97"
     y="46.96"
     width="55.02"
     height="24.04"
     rx="0.52"
     id="rect3821"
     style="fill:#499dbe;fill-opacity:1" />
  <rect
     fill="#92d050"
     x="44.00"
     y="47.00"
     width="55.00"
     height="24.00"
     rx="0.43"
     id="rect3823"
     style="fill:#499dbe;fill-opacity:1" />
  <rect
     fill="#92d050"
     x="329.00"
     y="47.00"
     width="55.00"
     height="24.00"
     rx="0.32"
     id="rect3825"
     style="fill:#499dbe;fill-opacity:1" />
  <rect
     fill="#92d050"
     x="443.00"
     y="47.00"
     width="55.00"
     height="24.00"
     rx="0.50"
     id="rect3827"
     style="fill:#499dbe;fill-opacity:1" />
  <rect
     fill="#92d050"
     x="614.00"
     y="47.00"
     width="55.00"
     height="24.00"
     rx="0.43"
     id="rect3829"
     style="fill:#499dbe;fill-opacity:1" />
  <rect
     fill="#92d050"
     x="785.00"
     y="47.00"
     width="55.00"
     height="24.00"
     rx="0.32"
     id="rect3831"
     style="fill:#499dbe;fill-opacity:1" />
  <rect
     fill="#92d050"
     x="956.00"
     y="47.00"
     width="55.00"
     height="24.00"
     rx="0.43"
     id="rect3833"
     style="fill:#499dbe;fill-opacity:1" />
  <rect
     fill="#92d050"
     x="1184.00"
     y="47.00"
     width="55.00"
     height="24.00"
     rx="0.50"
     id="rect3835"
     style="fill:#499dbe;fill-opacity:1" />
  <rect
     fill="#92d050"
     x="1298.00"
     y="47.00"
     width="55.00"
     height="24.00"
     rx="0.50"
     id="rect3837"
     style="fill:#499dbe;fill-opacity:1" />
  <rect
     fill="#92d050"
     x="1469.00"
     y="47.00"
     width="55.00"
     height="24.00"
     rx="0.32"
     id="rect3839"
     style="fill:#499dbe;fill-opacity:1" />
  <rect
     fill="#92d050"
     x="443.01"
     y="72.99"
     width="54.98"
     height="24.04"
     rx="0.51"
     id="rect3841"
     style="fill:#499dbe;fill-opacity:1" />
  <rect
     fill="#92d050"
     x="614.00"
     y="72.98"
     width="55.00"
     height="24.02"
     rx="0.46"
     id="rect3843"
     style="fill:#499dbe;fill-opacity:1" />
  <rect
     fill="#92d050"
     x="-27.49"
     y="-12.05"
     transform="translate(1325.50,85.03) rotate(-0.1)"
     width="54.98"
     height="24.10"
     rx="0.59"
     id="rect3845"
     style="fill:#499dbe;fill-opacity:1" />
  <rect
     fill="#92d050"
     x="1469.00"
     y="72.98"
     width="55.00"
     height="24.02"
     rx="0.46"
     id="rect3847"
     style="fill:#499dbe;fill-opacity:1" />
  <rect
     fill="#92d050"
     x="44.00"
     y="73.00"
     width="55.00"
     height="24.04"
     rx="0.47"
     id="rect3849"
     style="fill:#499dbe;fill-opacity:1" />
  <rect
     fill="#92d050"
     x="272.00"
     y="73.00"
     width="55.00"
     height="24.00"
     rx="0.43"
     id="rect3851"
     style="fill:#499dbe;fill-opacity:1" />
  <rect
     fill="#92d050"
     x="785.00"
     y="73.00"
     width="55.00"
     height="24.00"
     rx="0.43"
     id="rect3853"
     style="fill:#499dbe;fill-opacity:1" />
  <rect
     fill="#92d050"
     x="956.00"
     y="73.00"
     width="55.00"
     height="24.04"
     rx="0.47"
     id="rect3855"
     style="fill:#499dbe;fill-opacity:1" />
  <rect
     fill="#92d050"
     x="1127.00"
     y="73.00"
     width="55.02"
     height="24.00"
     rx="0.46"
     id="rect3857"
     style="fill:#499dbe;fill-opacity:1" />
  <rect
     fill="#92d050"
     x="-27.50"
     y="-12.04"
     transform="translate(1211.50,85.04) rotate(-0.1)"
     width="55.00"
     height="24.08"
     rx="0.52"
     id="rect3859"
     style="fill:#499dbe;fill-opacity:1" />
  <rect
     fill="#92d050"
     x="44.00"
     y="98.96"
     width="55.00"
     height="24.04"
     rx="0.46"
     id="rect3861"
     style="fill:#499dbe;fill-opacity:1" />
  <rect
     fill="#92d050"
     x="272.00"
     y="98.96"
     width="55.00"
     height="24.04"
     rx="0.47"
     id="rect3863"
     style="fill:#499dbe;fill-opacity:1" />
  <rect
     fill="#92d050"
     x="-27.50"
     y="-12.04"
     transform="translate(470.50,110.96) rotate(-0.1)"
     width="55.00"
     height="24.08"
     rx="0.58"
     id="rect3865"
     style="fill:#499dbe;fill-opacity:1" />
  <rect
     fill="#92d050"
     x="614.00"
     y="98.92"
     width="55.00"
     height="24.08"
     rx="0.51"
     id="rect3867"
     style="fill:#499dbe;fill-opacity:1" />
  <rect
     fill="#92d050"
     x="785.00"
     y="98.94"
     width="55.00"
     height="24.06"
     rx="0.55"
     id="rect3869"
     style="fill:#499dbe;fill-opacity:1" />
  <rect
     fill="#92d050"
     x="956.00"
     y="98.96"
     width="55.00"
     height="24.04"
     rx="0.46"
     id="rect3871"
     style="fill:#499dbe;fill-opacity:1" />
  <rect
     fill="#92d050"
     x="1127.00"
     y="98.92"
     width="55.00"
     height="24.08"
     rx="0.53"
     id="rect3873"
     style="fill:#499dbe;fill-opacity:1" />
  <rect
     fill="#92d050"
     x="1298.00"
     y="98.92"
     width="55.00"
     height="24.08"
     rx="0.52"
     id="rect3875"
     style="fill:#499dbe;fill-opacity:1" />
  <rect
     fill="#92d050"
     x="1469.00"
     y="98.92"
     width="55.00"
     height="24.08"
     rx="0.57"
     id="rect3877"
     style="fill:#499dbe;fill-opacity:1" />
  <rect
     fill="#92d050"
     x="101.00"
     y="99.00"
     width="55.00"
     height="24.00"
     rx="0.27"
     id="rect3879"
     style="fill:#499dbe;fill-opacity:1" />
  <rect
     fill="#92d050"
     x="671.00"
     y="99.00"
     width="55.00"
     height="24.00"
     rx="0.27"
     id="rect3881"
     style="fill:#499dbe;fill-opacity:1" />
  <rect
     fill="#92d050"
     x="1013.00"
     y="99.00"
     width="55.00"
     height="24.00"
     rx="0.27"
     id="rect3883"
     style="fill:#499dbe;fill-opacity:1" />
  <rect
     fill="#92d050"
     x="1241.00"
     y="99.00"
     width="55.00"
     height="24.00"
     rx="0.32"
     id="rect3885"
     style="fill:#499dbe;fill-opacity:1" />
  <rect
     fill="#92d050"
     x="44.00"
     y="125.00"
     width="55.00"
     height="24.04"
     rx="0.59"
     id="rect3887"
     style="fill:#499dbe;fill-opacity:1" />
  <rect
     fill="#92d050"
     x="272.00"
     y="125.00"
     width="55.00"
     height="24.02"
     rx="0.38"
     id="rect3889"
     style="fill:#499dbe;fill-opacity:1" />
  <rect
     fill="#92d050"
     x="443.00"
     y="125.00"
     width="55.00"
     height="24.00"
     rx="0.43"
     id="rect3891"
     style="fill:#499dbe;fill-opacity:1" />
  <rect
     fill="#92d050"
     x="614.00"
     y="125.00"
     width="55.00"
     height="24.00"
     rx="0.43"
     id="rect3893"
     style="fill:#499dbe;fill-opacity:1" />
  <rect
     fill="#92d050"
     x="785.00"
     y="125.00"
     width="55.00"
     height="24.00"
     rx="0.53"
     id="rect3895"
     style="fill:#499dbe;fill-opacity:1" />
  <rect
     fill="#92d050"
     x="956.00"
     y="125.00"
     width="55.00"
     height="24.04"
     rx="0.59"
     id="rect3897"
     style="fill:#499dbe;fill-opacity:1" />
  <rect
     fill="#92d050"
     x="1127.00"
     y="125.00"
     width="55.00"
     height="24.00"
     rx="0.50"
     id="rect3899"
     style="fill:#499dbe;fill-opacity:1" />
  <rect
     fill="#92d050"
     x="1241.00"
     y="125.00"
     width="55.02"
     height="24.00"
     rx="0.27"
     id="rect3901"
     style="fill:#499dbe;fill-opacity:1" />
  <rect
     fill="#92d050"
     x="1298.00"
     y="125.00"
     width="55.00"
     height="24.00"
     rx="0.43"
     id="rect3903"
     style="fill:#499dbe;fill-opacity:1" />
  <rect
     fill="#92d050"
     x="1469.00"
     y="125.00"
     width="55.00"
     height="24.00"
     rx="0.53"
     id="rect3905"
     style="fill:#499dbe;fill-opacity:1" />
  <rect
     fill="#92d050"
     x="443.00"
     y="150.96"
     width="55.00"
     height="24.04"
     rx="0.54"
     id="rect3907"
     style="fill:#499dbe;fill-opacity:1" />
  <rect
     fill="#92d050"
     x="614.00"
     y="150.98"
     width="55.00"
     height="24.02"
     rx="0.43"
     id="rect3909"
     style="fill:#499dbe;fill-opacity:1" />
  <rect
     fill="#92d050"
     x="785.00"
     y="150.98"
     width="55.00"
     height="24.02"
     rx="0.33"
     id="rect3911"
     style="fill:#499dbe;fill-opacity:1" />
  <rect
     fill="#92d050"
     x="-27.50"
     y="-12.06"
     transform="translate(1154.50,162.94) rotate(-0.1)"
     width="55.00"
     height="24.12"
     rx="0.54"
     id="rect3913"
     style="fill:#499dbe;fill-opacity:1" />
  <rect
     fill="#92d050"
     x="44.00"
     y="151.00"
     width="55.00"
     height="24.00"
     rx="0.43"
     id="rect3915"
     style="fill:#499dbe;fill-opacity:1" />
  <rect
     fill="#92d050"
     x="215.00"
     y="151.00"
     width="55.00"
     height="24.00"
     rx="0.43"
     id="rect3917"
     style="fill:#499dbe;fill-opacity:1" />
  <rect
     fill="#92d050"
     x="329.00"
     y="151.00"
     width="55.00"
     height="24.00"
     rx="0.32"
     id="rect3919"
     style="fill:#499dbe;fill-opacity:1" />
  <rect
     fill="#92d050"
     x="956.00"
     y="151.00"
     width="55.00"
     height="24.00"
     rx="0.43"
     id="rect3921"
     style="fill:#499dbe;fill-opacity:1" />
  <rect
     fill="#92d050"
     x="1298.00"
     y="151.00"
     width="55.00"
     height="24.00"
     rx="0.43"
     id="rect3923"
     style="fill:#499dbe;fill-opacity:1" />
  <rect
     fill="#92d050"
     x="1469.00"
     y="151.00"
     width="55.00"
     height="24.00"
     rx="0.50"
     id="rect3925"
     style="fill:#499dbe;fill-opacity:1" />
  <rect
     fill="#92d050"
     x="44.01"
     y="176.99"
     width="55.04"
     height="24.12"
     rx="0.62"
     id="rect3927"
     style="fill:#499dbe;fill-opacity:1" />
  <rect
     fill="#92d050"
     x="215.01"
     y="176.97"
     width="54.98"
     height="24.14"
     rx="0.69"
     id="rect3929"
     style="fill:#499dbe;fill-opacity:1" />
  <rect
     fill="#92d050"
     x="329.00"
     y="176.97"
     width="55.00"
     height="24.08"
     rx="0.46"
     id="rect3931"
     style="fill:#499dbe;fill-opacity:1" />
  <rect
     fill="#92d050"
     x="443.01"
     y="176.94"
     width="54.98"
     height="24.18"
     rx="0.67"
     id="rect3933"
     style="fill:#499dbe;fill-opacity:1" />
  <rect
     fill="#92d050"
     x="-27.50"
     y="-12.07"
     transform="translate(527.50,189.05) rotate(-0.1)"
     width="55.00"
     height="24.14"
     rx="0.56"
     id="rect3935"
     style="fill:#499dbe;fill-opacity:1" />
  <rect
     fill="#92d050"
     x="-27.50"
     y="-12.08"
     transform="translate(641.50,189.02) rotate(-0.1)"
     width="55.00"
     height="24.16"
     rx="0.60"
     id="rect3937"
     style="fill:#499dbe;fill-opacity:1" />
  <rect
     fill="#92d050"
     x="785.01"
     y="176.98"
     width="54.98"
     height="24.10"
     rx="0.52"
     id="rect3939"
     style="fill:#499dbe;fill-opacity:1" />
  <rect
     fill="#92d050"
     x="956.01"
     y="176.99"
     width="55.04"
     height="24.12"
     rx="0.62"
     id="rect3941"
     style="fill:#499dbe;fill-opacity:1" />
  <rect
     fill="#92d050"
     x="1127.01"
     y="176.96"
     width="54.98"
     height="24.14"
     rx="0.69"
     id="rect3943"
     style="fill:#499dbe;fill-opacity:1" />
  <rect
     fill="#92d050"
     x="1298.00"
     y="176.97"
     width="55.00"
     height="24.12"
     rx="0.52"
     id="rect3945"
     style="fill:#499dbe;fill-opacity:1" />
  <rect
     fill="#92d050"
     x="1469.01"
     y="176.96"
     width="54.98"
     height="24.12"
     rx="0.61"
     id="rect3947"
     style="fill:#499dbe;fill-opacity:1" />
  <rect
     fill="#92d050"
     x="101.00"
     y="177.00"
     width="55.00"
     height="24.10"
     rx="0.53"
     id="rect3949"
     style="fill:#499dbe;fill-opacity:1" />
  <rect
     fill="#92d050"
     x="-27.50"
     y="-12.06"
     transform="translate(698.50,189.06) rotate(-0.1)"
     width="55.00"
     height="24.12"
     rx="0.62"
     id="rect3951"
     style="fill:#499dbe;fill-opacity:1" />
  <rect
     fill="#92d050"
     x="842.00"
     y="177.00"
     width="55.00"
     height="24.10"
     rx="0.54"
     id="rect3953"
     style="fill:#499dbe;fill-opacity:1" />
  <rect
     fill="#92d050"
     x="1013.00"
     y="177.00"
     width="55.00"
     height="24.10"
     rx="0.53"
     id="rect3955"
     style="fill:#499dbe;fill-opacity:1" />
</svg>
