<?xml version="1.0" encoding="UTF-8" standalone="no"?>
<svg
   version="1.1"
   viewBox="0 0 846.40002 99.199997"
   id="svg22060"
   sodipodi:docname="HARP_research_logo_vectorized.svg"
   width="846.40002"
   height="99.199997"
   inkscape:version="1.1.1 (3bf5ae0d25, 2021-09-20)"
   xmlns:inkscape="http://www.inkscape.org/namespaces/inkscape"
   xmlns:sodipodi="http://sodipodi.sourceforge.net/DTD/sodipodi-0.dtd"
   xmlns="http://www.w3.org/2000/svg"
   xmlns:svg="http://www.w3.org/2000/svg">
  <defs
     id="defs22064" />
  <sodipodi:namedview
     id="namedview22062"
     pagecolor="#ffffff"
     bordercolor="#666666"
     borderopacity="1.0"
     inkscape:pageshadow="2"
     inkscape:pageopacity="0.0"
     inkscape:pagecheckerboard="0"
     showgrid="false"
     fit-margin-top="0"
     fit-margin-left="0"
     fit-margin-right="0"
     fit-margin-bottom="0"
     inkscape:zoom="0.70652174"
     inkscape:cx="421.78462"
     inkscape:cy="49.538462"
     inkscape:window-width="2400"
     inkscape:window-height="1494"
     inkscape:window-x="2869"
     inkscape:window-y="-11"
     inkscape:window-maximized="1"
     inkscape:current-layer="svg22060" />
  <g
     fill="#80aeff"
     id="g22032"
     transform="scale(0.4)">
    <path
       d="m 373.56,0 7.75,0.02 q 26.39,0.24 39.9,19.91 3.43,4.99 7.75,16.37 39.26,103.27 78.53,206.87 a 1,1 0 0 1 -0.94,1.35 l -44.42,-0.03 a 1.01,1 79.4 0 1 -0.94,-0.65 q -35.05,-93.01 -70.13,-186 C 387.54,48.51 385.37,41.76 374.5,43.28 q -6.9,0.97 -9.69,8.04 -37.96,96.25 -75.85,192.54 a 1,1 0 0 1 -0.93,0.63 l -44.06,0.03 a 1,1 0 0 1 -0.93,-1.37 Q 284,139.27 324.95,35.48 C 334.35,11.66 347.49,0.92 373.56,0 Z"
       id="path22028" />
    <path
       d="M 0,244.23 V 4.44 L 41,4.31 a 1,1 0 0 1 1,1 v 95.94 a 1,1 0 0 0 1,1 h 120.51 a 1,1 0 0 0 1,-1 l -0.01,-96 a 1,1 0 0 1 1,-1 H 206 a 1,1 0 0 1 1,1 v 238.26 a 1,1 0 0 1 -1,1 h -40.5 a 1.01,1.01 0 0 1 -1,-1.01 v -98.25 a 1,1 0 0 0 -1,-1 H 43 a 1,1 0 0 0 -1,1 v 98.28 a 1,1 0 0 1 -1.01,1 z"
       id="path22030" />
  </g>
  <g
     fill="#5c5c5c"
     id="g22046"
     transform="scale(0.4)">
    <path
       d="m 2116,169.31 v 75.25 l -18.24,-0.1 a 1,0.99 90 0 1 -0.99,-1 q -0.04,-33.5 -0.05,-66.96 c 0,-17.48 -4.49,-32.05 -23.74,-35.98 -17.85,-3.64 -36.69,3.25 -44.2,20.27 q -4.28,9.72 -4.3,23.28 -0.04,29.7 0.02,59.41 a 1,1 0 0 1 -1,1 l -17.25,0.05 a 0.99,0.99 0 0 1 -1,-0.99 V 74.25 a 1,1 0 0 1 1,-1 h 17.26 a 1,1 0 0 1 1,1 l -0.02,68.73 a 1,1 0 0 0 0.99,1 l 1.7,0.02 a 1.01,1 -73.9 0 0 0.88,-0.49 q 10.55,-17.95 31.96,-20.26 c 31.66,-3.41 54.45,14.29 55.98,46.06 z"
       id="path22034" />
    <path
       d="m 1270.94,248 h -6.75 c -41.54,-1.97 -61.72,-35.32 -56.83,-73.98 4.48,-35.41 33.62,-57.52 68.93,-51.81 22.91,3.71 40.1,18.67 45.43,41.81 q 2.54,11.01 1.75,24.79 a 1,0.99 1.5 0 1 -1,0.94 h -95.35 a 1,0.99 87.6 0 0 -0.99,1.08 q 0.3,3.56 0.95,7.17 c 4.28,23.73 25.6,35.92 48.39,32.34 9.22,-1.45 15.45,-4.85 21.26,-11.87 q 4.59,-5.54 7.15,-10.69 a 1,1 0 0 1 1.33,-0.45 l 14.71,7.14 a 1,0.99 26.8 0 1 0.45,1.36 q -4.85,9.24 -10.69,15.37 -15.39,16.18 -38.74,16.8 z m -34.76,-96.82 q -7.94,9.23 -9.51,21.44 a 1.01,1.01 0 0 0 1,1.13 l 75.21,0.01 a 1,0.99 87.6 0 0 0.99,-1.08 q -1.79,-21.69 -19.74,-30.22 c -15.37,-7.31 -36.64,-4.44 -47.95,8.72 z"
       id="path22036" />
    <path
       d="m 1408.44,248 h -6 c -15.1,-0.44 -31.99,-5.57 -41.98,-17.08 q -8.97,-10.34 -10.65,-24.89 a 1,0.99 -9.9 0 1 0.77,-1.09 l 16.22,-3.68 a 1.01,1.01 0 0 1 1.19,0.71 q 0.75,2.73 1.5,5.46 c 6.07,22.14 28.03,27.66 48,23.05 11.37,-2.62 19.7,-11.72 16.3,-23.76 -2.29,-8.13 -15.68,-11.65 -23.11,-13.15 -19.82,-4.01 -53.19,-7.35 -55.58,-34.24 -3.46,-38.84 48.18,-44.71 72.83,-31.75 q 16.27,8.56 21.3,27.89 a 0.99,0.99 0 0 1 -0.71,1.22 l -16.23,4.18 a 0.99,0.99 0 0 1 -1.23,-0.81 q -2.4,-15.35 -17.04,-20.32 c -12.71,-4.32 -41.56,-3.23 -39.98,16.98 0.98,12.58 14.51,15.66 23.99,17.09 15.83,2.39 44.41,7.11 52.48,23.47 5.03,10.19 3.78,23.73 -2.42,33.05 -8.71,13.1 -24.97,16.82 -39.65,17.67 z"
       id="path22038" />
    <path
       d="m 1544.44,248 h -6.75 c -30.78,-1.7 -51.98,-20.39 -56.57,-50.23 q -2.57,-16.63 1.1,-31.76 c 7.38,-30.47 34.49,-47.87 64.96,-44.15 22.5,2.75 40.41,16.12 47.08,38.4 q 3.82,12.78 2.61,28.57 a 1,0.99 -87.8 0 1 -0.99,0.92 h -95.07 a 1,1 0 0 0 -1,1.02 q 0.33,17.2 11.5,28.39 c 8.83,8.85 19.72,11.84 32.18,11.53 16.32,-0.41 26.88,-8.53 33.78,-22.9 a 1,1 0 0 1 1.33,-0.47 l 14.88,7.18 a 1,1 0 0 1 0.45,1.37 c -10.3,19.54 -27.06,31.54 -49.49,32.13 z m -34.74,-96.8 q -8.02,9.39 -9.52,21.45 a 1,1 0 0 0 0.99,1.12 l 75.26,-0.02 a 1.01,1 87.6 0 0 1,-1.09 q -1.91,-21.75 -19.78,-30.2 c -15.39,-7.28 -36.64,-4.49 -47.95,8.74 z"
       id="path22040" />
    <path
       d="m 1669.69,248 h -4.25 c -23.32,-0.79 -44.62,-14.47 -42.62,-40.31 2.03,-26.06 25.13,-32.99 47.1,-33.32 q 18.39,-0.28 37.16,-0.05 a 1,1 0 0 0 1.01,-1.03 c -0.14,-4.47 0.12,-9.53 -0.5,-13.46 -2.89,-18.3 -20.29,-23.99 -36.56,-21.13 -14.45,2.54 -21.11,10.62 -25.83,24.15 a 1.01,1 -71 0 1 -1.26,0.62 l -15.94,-5.2 a 1.01,1 -72.2 0 1 -0.64,-1.25 c 8.13,-26.36 31.9,-37.93 57.98,-35.3 19.54,1.97 35.35,11.47 40.23,31.49 q 1.41,5.81 1.41,18.2 -0.02,24.63 0.12,49.26 c 0.06,9.76 10.5,7.81 16.85,7.51 a 1,1 0 0 1 1.05,1 v 14.33 a 1,1 0 0 1 -1,1 c -14.4,-0.05 -32.79,3.28 -33.8,-16.81 a 1,1 0 0 0 -1,-0.95 h -1.37 a 0.99,0.99 0 0 0 -0.85,0.48 q -12.45,20.67 -37.29,20.77 z m -0.04,-57.97 c -10.98,0.05 -25.23,3.09 -27.17,16.39 -3.34,22.89 21.61,27.44 37.91,23.56 q 21.29,-5.07 26.53,-26.29 1.32,-5.35 1.07,-12.7 a 1.01,1.01 0 0 0 -1,-0.97 q -18.67,-0.07 -37.34,0.01 z"
       id="path22042" />
    <path
       d="m 1917.44,248 h -6.25 c -40.7,-1.96 -61.22,-32.96 -57.61,-71.88 2.47,-26.5 18.13,-46.52 44.67,-52.9 13.19,-3.17 29.46,-2.23 41.95,3.33 q 24.87,11.07 30.86,39.69 a 1.01,1 -11.9 0 1 -0.78,1.18 l -16.9,3.55 a 0.99,0.99 0 0 1 -1.19,-0.82 c -2.37,-15.24 -12.45,-27.05 -27.52,-30.23 -26.76,-5.65 -49.51,10.56 -51.79,37.65 -1.1,13.11 0.29,26.4 8.22,37.05 10.9,14.62 28.72,18.5 45.81,14.48 14.22,-3.34 23.64,-15.96 26.08,-29.76 a 1,1 0 0 1 1.2,-0.8 l 16.98,3.69 a 1,0.99 -76.3 0 1 0.75,1.24 q -11.14,41.55 -54.48,44.53 z"
       id="path22044" />
  </g>
  <g
     fill="#80aeff"
     id="g22052"
     transform="scale(0.4)">
    <path
       d="m 699.93,149.54 54.29,93.49 q 0.88,1.5 -0.86,1.5 l -44.28,-0.04 a 0.99,0.98 -14.4 0 1 -0.86,-0.5 L 654.19,152.3 a 1,0.99 74.7 0 0 -0.86,-0.5 q -51.96,-0.17 -63.08,-0.04 c -4.42,0.06 -5.01,3.53 -5,7.35 q 0.02,42.19 -0.02,84.38 a 1,1 0 0 1 -1,1 l -39.91,0.03 a 1,0.99 0 0 1 -1,-0.99 q -0.14,-46.51 -0.05,-93.03 c 0.05,-26.11 10.06,-38.96 37.06,-38.98 q 45.33,-0.04 90.67,-0.05 c 9.67,0 18.65,-1.19 26.15,-7.62 8.33,-7.14 11.68,-19.2 10.41,-30.03 C 705.27,54.18 691.11,46.19 672.5,46.22 Q 608.24,46.3 543.98,46.2 a 1,0.99 90 0 1 -0.99,-1 V 5.27 a 1,1 0 0 1 1,-1 q 64.99,-0.06 130.25,0.02 c 34.93,0.04 65.21,16.38 73.52,52.11 4.45,19.12 2.52,40.44 -6.47,58.03 q -12.72,24.87 -40.79,33.65 a 1,1 0 0 0 -0.57,1.46 z"
       id="path22048" />
    <path
       d="M 954.44,81.69 C 955.3,75.23 953.51,66.35 950,60.62 Q 941.32,46.46 923.31,46.32 900,46.15 797.75,46.25 a 1,1 0 0 1 -1,-1 V 5.28 a 1,1 0 0 1 1,-1 Q 858.89,4.2 920,4.29 c 34.62,0.05 65.58,15.26 74.34,51.14 8.6,35.25 -4.67,75.46 -39.91,90.01 q -15.15,6.25 -34.62,6.3 -36.62,0.1 -73.25,-0.02 c -6.26,-0.02 -7.57,1.86 -7.56,7.76 q 0.05,42.02 -0.07,84.05 a 0.99,0.99 0 0 1 -1,0.99 l -39.92,-0.03 a 1.01,1 89.7 0 1 -1,-1 q -0.05,-45.87 0.03,-91.74 c 0.04,-24.56 8.1,-39.99 34.71,-40.07 q 43.98,-0.13 87.97,-0.24 30.74,-0.07 34.72,-29.75 z"
       id="path22050" />
  </g>
  <g
     fill="#5c5c5c"
     id="g22058"
     transform="scale(0.4)">
    <path
       d="m 1793.87,139.03 c 4.22,-9.84 12.79,-13.93 22.95,-14.26 q 8.63,-0.28 17.16,-0.33 a 1.01,1 0 0 1 1.01,1 l 0.01,15.48 a 1,0.99 -0.9 0 1 -0.98,1 q -7.43,0.11 -14.68,0.21 c -22.1,0.32 -28.66,13.55 -28.61,32.8 q 0.08,34.3 -0.04,68.57 a 1,1 0 0 1 -0.99,1 l -17.27,0.01 a 1,1 0 0 1 -1,-1 l 0.04,-117.77 a 1,0.99 -89.7 0 1 1,-1 l 16.78,0.06 a 1,1 0 0 1 1,1 v 12.86 a 1,1 0 0 0 1.02,1 l 1.7,-0.02 a 0.99,0.99 0 0 0 0.9,-0.61 z"
       id="path22054" />
    <path
       d="m 1125.99,124.83 16.75,-0.12 a 1.01,1 0 0 1 1.01,1 v 12.95 a 1,1 0 0 0 1.02,1 l 1.77,-0.04 a 1,1 0 0 0 0.91,-0.62 c 4.05,-9.89 12.74,-13.67 22.87,-14.42 q 3.23,-0.25 17.19,-0.05 a 1,1 0 0 1 0.99,1 v 15.38 a 1,1 0 0 1 -0.98,1 q -7.2,0.15 -14.23,0.26 -22.57,0.33 -27.66,18.43 -1.44,5.15 -1.41,19.87 0.08,31.54 0,63.02 a 1,1 0 0 1 -1,1 l -17.22,0.03 a 1.01,1 -90 0 1 -1,-1.01 V 125.83 a 1,0.99 -90 0 1 0.99,-1 z"
       id="path22056" />
  </g>
</svg>
