<?xml version="1.0" encoding="UTF-8" standalone="no"?>
<svg
   version="1.1"
   viewBox="0 0 450 450"
   id="svg20"
   sodipodi:docname="generate_icon.svg"
   width="450"
   height="450"
   inkscape:version="1.1.1 (3bf5ae0d25, 2021-09-20)"
   xmlns:inkscape="http://www.inkscape.org/namespaces/inkscape"
   xmlns:sodipodi="http://sodipodi.sourceforge.net/DTD/sodipodi-0.dtd"
   xmlns="http://www.w3.org/2000/svg"
   xmlns:svg="http://www.w3.org/2000/svg">
  <defs
     id="defs24" />
  <sodipodi:namedview
     id="namedview22"
     pagecolor="#ffffff"
     bordercolor="#666666"
     borderopacity="1.0"
     inkscape:pageshadow="2"
     inkscape:pageopacity="0.0"
     inkscape:pagecheckerboard="0"
     showgrid="false"
     inkscape:zoom="1.5529158"
     inkscape:cx="269.81502"
     inkscape:cy="231.17803"
     inkscape:window-width="2400"
     inkscape:window-height="1494"
     inkscape:window-x="2869"
     inkscape:window-y="-11"
     inkscape:window-maximized="1"
     inkscape:current-layer="svg20" />
  <g
     fill="#000000"
     id="g18"
     style="fill:#ffffff;fill-opacity:1"
     transform="translate(-32.748847,1.7629996)">
    <path
       d="m 244.87,141.39 q -7.62,-6.29 -7.64,-21.14 -0.01,-24.12 0.07,-48.24 0.04,-10.74 7.49,-17.37 7.77,-6.91 18.18,-4 9.45,2.63 12.8,10.29 2.45,5.61 2.47,17.48 0.04,22.42 -0.03,44.84 -0.02,6.1 -2.06,10.94 -3.87,9.15 -13.7,11.39 -9.81,2.23 -17.58,-4.19 z"
       id="path2"
       style="fill:#ffffff;fill-opacity:1" />
    <rect
       x="-49.740002"
       y="-20.32"
       transform="rotate(45,-76.659638,268.26654)"
       width="99.480003"
       height="40.639999"
       rx="19.73"
       id="rect4"
       style="fill:#ffffff;fill-opacity:1" />
    <rect
       x="-49.610001"
       y="-20.24"
       transform="rotate(-44.9,334.81138,-355.28964)"
       width="99.220001"
       height="40.48"
       rx="19.65"
       id="rect6"
       style="fill:#ffffff;fill-opacity:1" />
    <path
       d="m 159.25,202.83 q 8.2,-0.05 14.01,4.82 5.33,4.47 6.9,11.4 1.57,6.93 -1.36,13.02 -3.21,6.66 -10.78,9.71 -3.5,1.41 -11.33,1.46 -24.17,0.13 -48.33,-0.12 -8.02,-0.08 -11.51,-1.45 -6.24,-2.44 -9.66,-7.91 -3.19,-5.1 -3.05,-11.25 0.14,-6.18 3.59,-11.07 3.72,-5.28 10.23,-7.38 3.83,-1.24 13.88,-1.18 23.69,0.12 47.41,-0.05 z"
       id="path8"
       style="fill:#ffffff;fill-opacity:1" />
    <path
       d="m 339.19,210.94 q 6.32,-8.22 17.63,-8.12 23.38,0.21 46.77,0.2 11.25,0 15.16,1.44 12.41,4.58 12.61,18.13 0.21,13.51 -11.9,18.96 -3.32,1.5 -9.65,1.66 -26.13,0.69 -52.25,0.05 -6.79,-0.17 -10.4,-1.67 -9.07,-3.77 -11.56,-13.26 -2.49,-9.5 3.59,-17.39 z"
       id="path10"
       style="fill:#ffffff;fill-opacity:1" />
    <rect
       x="-49.580002"
       y="-20.190001"
       transform="rotate(-44.9,463.17922,-45.686885)"
       width="99.160004"
       height="40.380001"
       rx="19.59"
       id="rect12"
       style="fill:#ffffff;fill-opacity:1" />
    <rect
       x="-49.720001"
       y="-20.209999"
       transform="rotate(45,-204.39318,577.48757)"
       width="99.440002"
       height="40.419998"
       rx="19.610001"
       id="rect14"
       style="fill:#ffffff;fill-opacity:1" />
    <path
       d="m 239.03,313.47 q 3.02,-7.79 9.69,-11.06 6.09,-2.99 13.1,-1.37 6.97,1.6 11.54,6.96 4.96,5.83 5,13.94 0.11,24.11 -0.25,48.2 -0.15,10.4 -1.79,14.47 -2.75,6.84 -10.13,10.15 -7.33,3.29 -14.41,0.99 -14.13,-4.6 -14.39,-22.44 -0.35,-23.53 -0.02,-47.07 0.12,-8.8 1.66,-12.77 z"
       id="path16"
       style="fill:#ffffff;fill-opacity:1" />
  </g>
</svg>
